<svg width="378" height="284" viewBox="0 0 378 284" fill="none" xmlns="http://www.w3.org/2000/svg">
<path d="M130.505 368.92C61.1724 368.92 4.9658 312.635 4.9658 243.202C4.9658 173.769 61.1724 117.484 130.505 117.484C199.838 117.484 256.045 173.769 256.045 243.202C256.045 312.635 199.838 368.92 130.505 368.92Z" stroke="#6246E5"/>
<path d="M143.773 373.902C66.1965 373.902 3.30749 310.925 3.30749 233.237C3.30749 155.55 66.1965 92.5727 143.773 92.5727C221.349 92.5728 284.238 155.55 284.238 233.237C284.238 310.925 221.349 373.902 143.773 373.902Z" stroke="#6246E5"/>
<path d="M154.552 378.885C69.6488 378.885 0.819753 309.959 0.819756 224.934C0.81976 139.909 69.6488 70.9831 154.552 70.9831C239.456 70.9832 308.285 139.909 308.285 224.934C308.285 309.959 239.456 378.885 154.552 378.885Z" stroke="#6246E5"/>
<path d="M170.308 382.206C78.9927 382.206 4.96621 308.076 4.96621 216.63C4.96621 125.184 78.9927 51.0542 170.308 51.0542C261.622 51.0542 335.649 125.184 335.649 216.63C335.649 308.076 261.622 382.206 170.308 382.206Z" stroke="#6246E5"/>
<path d="M185.648 385.528C88.1504 385.528 9.11205 306.378 9.11205 208.742C9.11206 111.105 88.1504 31.9553 185.648 31.9553C283.145 31.9553 362.183 111.105 362.183 208.742C362.183 306.379 283.145 385.528 185.648 385.528Z" stroke="#6246E5"/>
<path d="M203.061 389.68C95.9466 389.68 9.11205 302.723 9.11205 195.456C9.11206 88.1879 95.9466 1.23143 203.061 1.23144C310.175 1.23144 397.01 88.1879 397.01 195.456C397.01 302.723 310.175 389.68 203.061 389.68Z" stroke="#6246E5"/>
</svg>
