<svg width="100" height="72" viewBox="0 0 100 72" fill="none" xmlns="http://www.w3.org/2000/svg">
<path d="M10 39C10 48.9411 18.0589 57 28 57L55 57C57.7614 57 60 54.7614 60 52L60 23C60 17.4772 55.5228 13 50 13L15 13C12.2386 13 10 15.2386 10 18L10 39Z" fill="#FFF1DA"/>
<path d="M54.3798 46.1112C53.4587 45.8724 52.4772 45.7998 51.4962 45.8977C48.9564 46.1227 46.9437 47.2671 47.0011 48.4534C47.0586 49.6398 49.1644 50.4186 51.7042 50.1935C52.6863 50.1173 53.6522 49.8724 54.5426 49.4739C54.9626 49.2762 55.2207 48.8945 55.201 48.5006L55.1264 46.9595C55.1085 46.5653 54.8154 46.2326 54.3798 46.1112Z" fill="#D5D6DB"/>
<path d="M58.1231 27.503C57.4552 27.33 56.7434 27.2774 56.032 27.3484C54.1908 27.5116 52.7309 28.3411 52.7726 29.2006C52.8142 30.0601 54.3417 30.625 56.1828 30.4619C56.8949 30.4064 57.5954 30.2286 58.2411 29.9396C58.5454 29.7962 58.7323 29.5197 58.7181 29.2341L58.664 28.1182C58.6512 27.8325 58.439 27.5912 58.1231 27.503Z" fill="#D5D6DB"/>
<path d="M49.984 24.2086C49.8586 24.126 49.6982 24.0885 49.5341 24.1032L45.209 24.4866C44.8475 24.5182 44.5658 24.7904 44.58 25.095C44.5832 25.1648 44.6021 25.2326 44.6358 25.2947L49.7687 34.8201L64.1905 33.5416L49.984 24.2086Z" fill="#029BC5"/>
<path d="M84.6253 40.9114L45.4966 44.1658L24.4491 42.109L14.6369 39.3138L14.5239 37.1755L79.436 32.3372C81.3725 32.1892 83.2934 32.4721 85.0043 33.1574C85.7516 33.4614 86.4453 33.8452 87.0696 34.2997C87.6256 34.698 88.1063 35.1643 88.4973 35.6847C88.9314 36.2698 90.0281 36.8715 90.0878 37.6262C90.0895 37.6259 89.5581 40.6799 84.6253 40.9114V40.9114Z" fill="#E1E6E9"/>
<path d="M47.165 41.9443L23.8357 55.48C23.5278 55.6803 23.4559 56.0438 23.6749 56.2918C23.8093 56.444 24.03 56.5236 24.2615 56.5034L28.5783 56.1295C29.4087 56.0574 30.2233 55.8433 30.9717 55.5004L70.8283 39.4543L47.165 41.9443Z" fill="#029BC5"/>
<path d="M15.3463 24.8559C15.1714 24.6757 14.8987 24.5837 14.6142 24.6089L11.0424 24.9245C10.5558 24.9674 10.1773 25.334 10.1969 25.7436C10.2007 25.8215 10.2189 25.8976 10.2511 25.9691L14.6336 35.7406L25.1051 34.9063L15.3463 24.8559Z" fill="#029BC5"/>
<path d="M16.5879 38.0963L9.59357 41.6185C9.49188 41.6685 9.45263 41.7764 9.50593 41.8593C9.54438 41.9191 9.6227 41.9519 9.70526 41.9427L13.0391 41.6556C13.0649 41.6534 13.0906 41.6471 13.1144 41.6371L22.7661 37.5669L16.5879 38.0963Z" fill="#029BC5"/>
<path d="M86.4588 34.2938C85.8164 33.8249 85.1016 33.43 84.3314 33.118C83.0924 33.7407 82.0478 34.6175 81.3017 35.6608C81.1715 35.8804 81.2701 36.1366 81.5221 36.2331C81.6004 36.263 81.6877 36.275 81.7759 36.2677L87.927 35.7246C87.5255 35.1863 87.0311 34.7045 86.4588 34.2938Z" fill="#029BC5"/>
<path d="M73.5751 34.4899L77.5829 34.1508L77.905 40.2968L73.8972 40.6359L73.5751 34.4899Z" fill="#D5D6DB"/>
<path d="M70.6931 35.3848C70.2098 35.4264 69.8342 35.7886 69.8544 36.194L69.8872 36.8508C69.9238 37.2544 70.3446 37.5369 70.8272 37.4816C71.2866 37.4289 71.6405 37.0876 71.637 36.7004L71.6042 36.0436C71.5839 35.6386 71.1763 35.3436 70.6931 35.3848V35.3848Z" fill="#3A556A"/>
<path d="M67.106 35.6616C66.6227 35.7032 66.247 36.0654 66.2673 36.4708L66.3001 37.1276C66.3366 37.5312 66.7574 37.8137 67.24 37.7584C67.6994 37.7057 68.0534 37.3644 68.0498 36.9772L68.017 36.3204C67.9966 35.9154 67.5889 35.6204 67.106 35.6616V35.6616Z" fill="#3A556A"/>
<path d="M63.5174 35.9383C63.0343 35.9803 62.6595 36.3423 62.6797 36.7474L62.7125 37.4041C62.7491 37.8077 63.1699 38.0902 63.6525 38.035C64.1119 37.9822 64.4658 37.6409 64.4623 37.2537L64.4295 36.597C64.4092 36.1916 64.0009 35.8967 63.5174 35.9383V35.9383Z" fill="#3A556A"/>
<path d="M59.93 36.2149C59.4469 36.2569 59.0721 36.6189 59.0923 37.024L59.1251 37.6808C59.1617 38.0844 59.5825 38.3668 60.0651 38.3116C60.5245 38.2589 60.8784 37.9176 60.8749 37.5303L60.8421 36.8736C60.8216 36.4682 60.4133 36.1733 59.93 36.2149V36.2149Z" fill="#3A556A"/>
<path d="M56.3427 36.4916C55.8594 36.5337 55.4844 36.8958 55.5046 37.3011L55.5375 37.9581C55.5578 38.3632 55.9659 38.6579 56.449 38.6164C56.9322 38.5749 57.3074 38.2129 57.2872 37.8078L57.2543 37.1508C57.2347 36.7457 56.827 36.4506 56.3438 36.4915C56.3434 36.4916 56.3431 36.4916 56.3427 36.4916Z" fill="#3A556A"/>
<path d="M52.7555 36.7683C52.2721 36.8104 51.8971 37.1725 51.9173 37.5778L51.9502 38.2348C51.9705 38.6399 52.3786 38.9346 52.8618 38.8931C53.3449 38.8516 53.7202 38.4896 53.6999 38.0845L53.667 37.4275C53.6474 37.0224 53.2397 36.7273 52.7565 36.7682C52.7561 36.7683 52.7557 36.7683 52.7555 36.7683Z" fill="#3A556A"/>
<path d="M49.1678 37.0449C48.6845 37.0869 48.3094 37.4491 48.3297 37.8543L48.3626 38.5113C48.3835 38.9163 48.7921 39.2105 49.2751 39.1685C49.7572 39.1266 50.1316 38.7653 50.112 38.3611L50.0791 37.704C50.0591 37.2988 49.6512 37.0037 49.1678 37.0449Z" fill="#3A556A"/>
<path d="M45.5804 37.3215C45.0971 37.3635 44.722 37.7257 44.7423 38.1309L44.7752 38.788C44.796 39.193 45.2047 39.4871 45.6876 39.4451C46.1698 39.4032 46.5442 39.0419 46.5246 38.6377L46.4917 37.9806C46.4717 37.5754 46.0638 37.2803 45.5804 37.3215Z" fill="#3A556A"/>
<path d="M41.993 37.598C41.5097 37.6401 41.1346 38.0022 41.1549 38.4075L41.1878 39.0645C41.2086 39.4695 41.6173 39.7637 42.1003 39.7217C42.5824 39.6797 42.9568 39.3185 42.9372 38.9142L42.9043 38.2572C42.8841 37.852 42.4762 37.5569 41.993 37.598Z" fill="#3A556A"/>
<path d="M38.4045 37.8747C37.9213 37.9162 37.5461 38.2782 37.5663 38.6833L37.5664 38.6841L37.5993 39.3412C37.6201 39.7462 38.0288 40.0404 38.5117 39.9984C38.9938 39.9564 39.3683 39.5952 39.3487 39.1909L39.3158 38.5339C39.2958 38.1286 38.8879 37.8335 38.4045 37.8747Z" fill="#3A556A"/>
<path d="M34.8181 38.1512C34.3349 38.1927 33.9597 38.5547 33.9799 38.9598L33.98 38.9606L34.0129 39.6177C34.0337 40.0227 34.4424 40.3168 34.9254 40.2748C35.4075 40.2329 35.7819 39.8717 35.7623 39.4674L35.7294 38.8104C35.7092 38.4051 35.3012 38.1101 34.8181 38.1512Z" fill="#3A556A"/>
</svg>
